<svg width="64" height="64" viewBox="0 0 64 64" fill="none" xmlns="http://www.w3.org/2000/svg">
  <defs>
    <linearGradient id="grad" x1="0%" y1="0%" x2="100%" y2="100%">
      <stop offset="0%" style="stop-color:#3b82f6;stop-opacity:1" />
      <stop offset="100%" style="stop-color:#8b5cf6;stop-opacity:1" />
    </linearGradient>
  </defs>
  
  <!-- Background -->
  <rect width="64" height="64" rx="12" fill="url(#grad)"/>
  
  <!-- Motion Lines -->
  <line x1="8" y1="22" x2="16" y2="22" stroke="white" stroke-width="2" stroke-linecap="round" opacity="0.4"/>
  <line x1="6" y1="28" x2="15" y2="28" stroke="white" stroke-width="2" stroke-linecap="round" opacity="0.5"/>
  <line x1="8" y1="34" x2="18" y2="34" stroke="white" stroke-width="2" stroke-linecap="round" opacity="0.6"/>
  <line x1="6" y1="40" x2="14" y2="40" stroke="white" stroke-width="2" stroke-linecap="round" opacity="0.4"/>
  
  <!-- N -->
  <path d="M 22 18 L 22 46 L 26 46 L 26 26 L 36 46 L 40 46 L 40 18 L 36 18 L 36 38 L 26 18 Z" 
        fill="white"/>
  
  <!-- X -->
  <path d="M 44 18 L 50 32 L 44 46 L 48 46 L 53 34 L 58 46 L 62 46 L 56 32 L 62 18 L 58 18 L 53 30 L 48 18 Z" 
        fill="white"/>
  
  <!-- Arrow -->
  <path d="M 57 30 L 60 32 L 57 34" 
        stroke="white" 
        stroke-width="2" 
        stroke-linecap="round" 
        stroke-linejoin="round" 
        fill="none"
        opacity="0.8"/>
</svg>
